<mxfile host="Electron" modified="2023-11-24T19:40:50.065Z" agent="Mozilla/5.0 (X11; Linux x86_64) AppleWebKit/537.36 (KHTML, like Gecko) draw.io/22.1.2 Chrome/114.0.5735.289 Electron/25.9.4 Safari/537.36" etag="RP2_8uqcgxjE89MiZUIL" version="22.1.2" type="device" pages="5">
  <diagram id="B0pIDfBBD8ubij0d-hfm" name="расческа">
    <mxGraphModel dx="1620" dy="843" grid="1" gridSize="10" guides="1" tooltips="1" connect="1" arrows="1" fold="1" page="1" pageScale="1" pageWidth="827" pageHeight="1169" math="0" shadow="0">
      <root>
        <mxCell id="0" />
        <mxCell id="1" parent="0" />
        <mxCell id="uMxq-mfwL2Jxajh8GeN0-32" style="orthogonalLoop=1;jettySize=auto;html=1;exitX=0;exitY=0.5;exitDx=0;exitDy=0;exitPerimeter=0;entryX=1;entryY=0.5;entryDx=0;entryDy=0;strokeColor=default;rounded=0;dashed=1;endArrow=none;endFill=0;" parent="1" source="uMxq-mfwL2Jxajh8GeN0-15" edge="1">
          <mxGeometry relative="1" as="geometry">
            <mxPoint x="360" y="80" as="targetPoint" />
          </mxGeometry>
        </mxCell>
        <mxCell id="uMxq-mfwL2Jxajh8GeN0-15" value="Сортировка расчёской&lt;br&gt;Вход: массив a&amp;nbsp;с элементами &lt;br&gt;в произвольном порядке&lt;br&gt;Выход: упорядоченный массив a" style="strokeWidth=1;html=1;shape=mxgraph.flowchart.annotation_1;align=left;pointerEvents=1;rounded=0;shadow=0;spacingLeft=5;" parent="1" vertex="1">
          <mxGeometry x="400" y="50" width="40" height="60" as="geometry" />
        </mxCell>
        <mxCell id="wAsw_IXBbqUoalMu6z1u-18" style="edgeStyle=orthogonalEdgeStyle;rounded=0;orthogonalLoop=1;jettySize=auto;html=1;exitX=1;exitY=0.5;exitDx=0;exitDy=0;" parent="1" source="uMxq-mfwL2Jxajh8GeN0-39" target="wAsw_IXBbqUoalMu6z1u-8" edge="1">
          <mxGeometry relative="1" as="geometry" />
        </mxCell>
        <mxCell id="wAsw_IXBbqUoalMu6z1u-20" style="endArrow=none;html=1;rounded=0;" parent="1" source="uMxq-mfwL2Jxajh8GeN0-39" target="wAsw_IXBbqUoalMu6z1u-9" edge="1">
          <mxGeometry relative="1" as="geometry">
            <Array as="points">
              <mxPoint x="120" y="405" />
              <mxPoint x="120" y="550" />
              <mxPoint x="260" y="550" />
            </Array>
          </mxGeometry>
        </mxCell>
        <mxCell id="uMxq-mfwL2Jxajh8GeN0-39" value="a[i+gap] &amp;lt; a[i]" style="rhombus;whiteSpace=wrap;html=1;rounded=0;shadow=0;strokeWidth=1;" parent="1" vertex="1">
          <mxGeometry x="155" y="370" width="210" height="70" as="geometry" />
        </mxCell>
        <mxCell id="uMxq-mfwL2Jxajh8GeN0-55" value="Да" style="text;html=1;align=center;verticalAlign=middle;resizable=0;points=[];autosize=1;strokeColor=none;fillColor=none;" parent="1" vertex="1">
          <mxGeometry x="360" y="380" width="40" height="30" as="geometry" />
        </mxCell>
        <mxCell id="wAsw_IXBbqUoalMu6z1u-1" value="step = len(a) - 1" style="html=1;dashed=0;whitespace=wrap;" parent="1" vertex="1">
          <mxGeometry x="160" y="130" width="200" height="60" as="geometry" />
        </mxCell>
        <mxCell id="wAsw_IXBbqUoalMu6z1u-2" value="Начало" style="html=1;dashed=0;whitespace=wrap;shape=mxgraph.dfd.start" parent="1" vertex="1">
          <mxGeometry x="160" y="50" width="200" height="60" as="geometry" />
        </mxCell>
        <mxCell id="wAsw_IXBbqUoalMu6z1u-5" value="Цикл пока step &amp;gt;= 1" style="shape=loopLimit;whiteSpace=wrap;html=1;direction=east" parent="1" vertex="1">
          <mxGeometry x="160" y="210" width="200" height="60" as="geometry" />
        </mxCell>
        <mxCell id="wAsw_IXBbqUoalMu6z1u-7" style="endArrow=none;html=1;rounded=0;" parent="1" source="wAsw_IXBbqUoalMu6z1u-8" target="wAsw_IXBbqUoalMu6z1u-9" edge="1">
          <mxGeometry relative="1" as="geometry">
            <Array as="points">
              <mxPoint x="400" y="550" />
              <mxPoint x="260" y="550" />
            </Array>
          </mxGeometry>
        </mxCell>
        <mxCell id="wAsw_IXBbqUoalMu6z1u-8" value="tmp = a[i+gap]&lt;br style=&quot;border-color: var(--border-color);&quot;&gt;&lt;span style=&quot;&quot;&gt;a[i+gap] = a[i]&lt;/span&gt;&lt;br style=&quot;border-color: var(--border-color);&quot;&gt;&lt;span style=&quot;&quot;&gt;a[i] = tmp&lt;/span&gt;" style="html=1;dashed=0;whitespace=wrap;" parent="1" vertex="1">
          <mxGeometry x="300" y="460" width="200" height="60" as="geometry" />
        </mxCell>
        <mxCell id="wAsw_IXBbqUoalMu6z1u-23" style="endArrow=none;html=1;rounded=0;" parent="1" source="wAsw_IXBbqUoalMu6z1u-9" target="wAsw_IXBbqUoalMu6z1u-21" edge="1">
          <mxGeometry relative="1" as="geometry" />
        </mxCell>
        <mxCell id="wAsw_IXBbqUoalMu6z1u-9" value="i = i + 1" style="shape=loopLimit;whiteSpace=wrap;html=1;strokeWidth=1;direction=west;" parent="1" vertex="1">
          <mxGeometry x="160" y="570" width="200" height="60" as="geometry" />
        </mxCell>
        <mxCell id="wAsw_IXBbqUoalMu6z1u-14" value="" style="endArrow=none;html=1;rounded=0;entryX=0.5;entryY=1;entryDx=0;entryDy=0;exitX=0.5;exitY=0;exitDx=0;exitDy=0;" parent="1" source="wAsw_IXBbqUoalMu6z1u-5" target="wAsw_IXBbqUoalMu6z1u-1" edge="1">
          <mxGeometry width="50" height="50" relative="1" as="geometry">
            <mxPoint x="380" y="430" as="sourcePoint" />
            <mxPoint x="430" y="380" as="targetPoint" />
          </mxGeometry>
        </mxCell>
        <mxCell id="wAsw_IXBbqUoalMu6z1u-17" style="endArrow=none;html=1;rounded=0;" parent="1" source="wAsw_IXBbqUoalMu6z1u-15" target="uMxq-mfwL2Jxajh8GeN0-39" edge="1">
          <mxGeometry relative="1" as="geometry" />
        </mxCell>
        <mxCell id="wAsw_IXBbqUoalMu6z1u-15" value="Цикл i от 0, пока&amp;nbsp;&lt;br&gt;i + step &amp;lt; len(a)" style="shape=loopLimit;whiteSpace=wrap;html=1;direction=east" parent="1" vertex="1">
          <mxGeometry x="160" y="290" width="200" height="60" as="geometry" />
        </mxCell>
        <mxCell id="wAsw_IXBbqUoalMu6z1u-16" value="" style="endArrow=none;html=1;rounded=0;entryX=0.5;entryY=1;entryDx=0;entryDy=0;exitX=0.5;exitY=0;exitDx=0;exitDy=0;" parent="1" edge="1">
          <mxGeometry width="50" height="50" relative="1" as="geometry">
            <mxPoint x="259.5" y="290" as="sourcePoint" />
            <mxPoint x="259.5" y="270" as="targetPoint" />
          </mxGeometry>
        </mxCell>
        <mxCell id="8ZE3muRzfT9AHViZXgvi-1" style="endArrow=none;html=1;rounded=0;" parent="1" source="wAsw_IXBbqUoalMu6z1u-21" target="wAsw_IXBbqUoalMu6z1u-24" edge="1">
          <mxGeometry relative="1" as="geometry" />
        </mxCell>
        <mxCell id="wAsw_IXBbqUoalMu6z1u-21" value="step = step / 1.3" style="shape=loopLimit;whiteSpace=wrap;html=1;strokeWidth=1;direction=west;" parent="1" vertex="1">
          <mxGeometry x="160" y="650" width="200" height="60" as="geometry" />
        </mxCell>
        <mxCell id="wAsw_IXBbqUoalMu6z1u-24" value="Конец" style="html=1;dashed=0;whitespace=wrap;shape=mxgraph.dfd.start" parent="1" vertex="1">
          <mxGeometry x="160" y="730" width="200" height="60" as="geometry" />
        </mxCell>
        <mxCell id="ebvtJggNKiC76r6tjNgE-4" value="" style="endArrow=none;html=1;rounded=0;entryX=0.5;entryY=0.5;entryDx=0;entryDy=30;entryPerimeter=0;" parent="1" source="wAsw_IXBbqUoalMu6z1u-1" target="wAsw_IXBbqUoalMu6z1u-2" edge="1">
          <mxGeometry width="50" height="50" relative="1" as="geometry">
            <mxPoint x="530" y="480" as="sourcePoint" />
            <mxPoint x="580" y="430" as="targetPoint" />
          </mxGeometry>
        </mxCell>
      </root>
    </mxGraphModel>
  </diagram>
  <diagram id="7mIrripvG4_P413FsFuD" name="бин дерево">
    <mxGraphModel dx="1620" dy="843" grid="1" gridSize="10" guides="1" tooltips="1" connect="1" arrows="1" fold="1" page="1" pageScale="1" pageWidth="1100" pageHeight="850" math="0" shadow="0">
      <root>
        <mxCell id="0" />
        <mxCell id="1" parent="0" />
        <mxCell id="aiIth0CipxrGkPAbReuv-1" style="orthogonalLoop=1;jettySize=auto;html=1;exitX=0;exitY=0.5;exitDx=0;exitDy=0;exitPerimeter=0;entryX=1;entryY=0.5;entryDx=0;entryDy=0;strokeColor=default;rounded=0;dashed=1;endArrow=none;endFill=0;" parent="1" source="aiIth0CipxrGkPAbReuv-2" edge="1">
          <mxGeometry relative="1" as="geometry">
            <mxPoint x="330" y="750" as="targetPoint" />
          </mxGeometry>
        </mxCell>
        <mxCell id="aiIth0CipxrGkPAbReuv-2" value="Сортировка бинарным деревом&lt;br&gt;Вход: массив a&amp;nbsp;с элементами &lt;br&gt;в произвольном порядке&lt;br&gt;Выход: упорядоченный массив a" style="strokeWidth=1;html=1;shape=mxgraph.flowchart.annotation_1;align=left;pointerEvents=1;rounded=0;shadow=0;spacingLeft=5;" parent="1" vertex="1">
          <mxGeometry x="370" y="720" width="40" height="60" as="geometry" />
        </mxCell>
        <mxCell id="aiIth0CipxrGkPAbReuv-8" value="root = None" style="html=1;dashed=0;whitespace=wrap;" parent="1" vertex="1">
          <mxGeometry x="130" y="800" width="200" height="60" as="geometry" />
        </mxCell>
        <mxCell id="aiIth0CipxrGkPAbReuv-9" style="endArrow=none;html=1;rounded=0;" parent="1" source="aiIth0CipxrGkPAbReuv-10" target="aiIth0CipxrGkPAbReuv-8" edge="1">
          <mxGeometry relative="1" as="geometry" />
        </mxCell>
        <mxCell id="aiIth0CipxrGkPAbReuv-10" value="Начало" style="html=1;dashed=0;whitespace=wrap;shape=mxgraph.dfd.start" parent="1" vertex="1">
          <mxGeometry x="130" y="720" width="200" height="60" as="geometry" />
        </mxCell>
        <mxCell id="aiIth0CipxrGkPAbReuv-11" value="Цикл по i от 0 до len(a) - 1&lt;br&gt;с шагом 1" style="shape=loopLimit;whiteSpace=wrap;html=1;direction=east" parent="1" vertex="1">
          <mxGeometry x="130" y="880" width="200" height="60" as="geometry" />
        </mxCell>
        <mxCell id="aiIth0CipxrGkPAbReuv-15" value="Конец цикла по i" style="shape=loopLimit;whiteSpace=wrap;html=1;strokeWidth=1;direction=west;" parent="1" vertex="1">
          <mxGeometry x="130" y="1038" width="200" height="60" as="geometry" />
        </mxCell>
        <mxCell id="aiIth0CipxrGkPAbReuv-16" value="" style="endArrow=none;html=1;rounded=0;entryX=0.5;entryY=1;entryDx=0;entryDy=0;exitX=0.5;exitY=0;exitDx=0;exitDy=0;" parent="1" source="aiIth0CipxrGkPAbReuv-11" target="aiIth0CipxrGkPAbReuv-8" edge="1">
          <mxGeometry width="50" height="50" relative="1" as="geometry">
            <mxPoint x="350" y="1100" as="sourcePoint" />
            <mxPoint x="400" y="1050" as="targetPoint" />
          </mxGeometry>
        </mxCell>
        <mxCell id="aiIth0CipxrGkPAbReuv-19" value="" style="endArrow=none;html=1;rounded=0;entryX=0.5;entryY=1;entryDx=0;entryDy=0;exitX=0.5;exitY=0;exitDx=0;exitDy=0;" parent="1" edge="1">
          <mxGeometry width="50" height="50" relative="1" as="geometry">
            <mxPoint x="229.5" y="960" as="sourcePoint" />
            <mxPoint x="229.5" y="940" as="targetPoint" />
          </mxGeometry>
        </mxCell>
        <mxCell id="aiIth0CipxrGkPAbReuv-68" value="root = insert_node(root, a[i])" style="shape=process;whiteSpace=wrap;html=1;backgroundOutline=1;" parent="1" vertex="1">
          <mxGeometry x="130" y="960" width="200" height="60" as="geometry" />
        </mxCell>
        <mxCell id="aiIth0CipxrGkPAbReuv-69" value="Создание массива sorted_list" style="html=1;dashed=0;whitespace=wrap;" parent="1" vertex="1">
          <mxGeometry x="130" y="1120" width="200" height="60" as="geometry" />
        </mxCell>
        <mxCell id="aiIth0CipxrGkPAbReuv-72" value="" style="endArrow=none;html=1;rounded=0;entryX=0.5;entryY=1;entryDx=0;entryDy=0;exitX=0.5;exitY=1;exitDx=0;exitDy=0;" parent="1" source="aiIth0CipxrGkPAbReuv-15" target="aiIth0CipxrGkPAbReuv-68" edge="1">
          <mxGeometry width="50" height="50" relative="1" as="geometry">
            <mxPoint x="310" y="1180" as="sourcePoint" />
            <mxPoint x="360" y="1130" as="targetPoint" />
          </mxGeometry>
        </mxCell>
        <mxCell id="aiIth0CipxrGkPAbReuv-75" value="" style="endArrow=none;html=1;rounded=0;entryX=0.5;entryY=0;entryDx=0;entryDy=0;" parent="1" source="aiIth0CipxrGkPAbReuv-69" target="aiIth0CipxrGkPAbReuv-15" edge="1">
          <mxGeometry width="50" height="50" relative="1" as="geometry">
            <mxPoint x="310" y="1180" as="sourcePoint" />
            <mxPoint x="360" y="1130" as="targetPoint" />
          </mxGeometry>
        </mxCell>
        <mxCell id="aiIth0CipxrGkPAbReuv-81" value="" style="endArrow=none;html=1;rounded=0;entryX=0.5;entryY=1;entryDx=0;entryDy=0;exitX=0.5;exitY=0;exitDx=0;exitDy=0;" parent="1" edge="1">
          <mxGeometry width="50" height="50" relative="1" as="geometry">
            <mxPoint x="229.5" y="1200" as="sourcePoint" />
            <mxPoint x="229.5" y="1180" as="targetPoint" />
          </mxGeometry>
        </mxCell>
        <mxCell id="aiIth0CipxrGkPAbReuv-82" value="Вызов функции&lt;br&gt;centered_traversal(root, sorted_list)" style="shape=process;whiteSpace=wrap;html=1;backgroundOutline=1;" parent="1" vertex="1">
          <mxGeometry x="130" y="1200" width="200" height="60" as="geometry" />
        </mxCell>
        <mxCell id="aiIth0CipxrGkPAbReuv-83" value="" style="endArrow=none;html=1;rounded=0;entryX=0.5;entryY=1;entryDx=0;entryDy=0;exitX=0.5;exitY=1;exitDx=0;exitDy=0;" parent="1" target="aiIth0CipxrGkPAbReuv-82" edge="1">
          <mxGeometry width="50" height="50" relative="1" as="geometry">
            <mxPoint x="230" y="1278" as="sourcePoint" />
            <mxPoint x="360" y="1370" as="targetPoint" />
          </mxGeometry>
        </mxCell>
        <mxCell id="aiIth0CipxrGkPAbReuv-85" value="Конец" style="html=1;dashed=0;whitespace=wrap;shape=mxgraph.dfd.start" parent="1" vertex="1">
          <mxGeometry x="130" y="1275" width="200" height="60" as="geometry" />
        </mxCell>
        <mxCell id="aiIth0CipxrGkPAbReuv-87" style="orthogonalLoop=1;jettySize=auto;html=1;exitX=0;exitY=0.5;exitDx=0;exitDy=0;exitPerimeter=0;entryX=1;entryY=0.5;entryDx=0;entryDy=0;strokeColor=default;rounded=0;dashed=1;endArrow=none;endFill=0;" parent="1" source="aiIth0CipxrGkPAbReuv-88" edge="1">
          <mxGeometry relative="1" as="geometry">
            <mxPoint x="555" y="1385.5" as="targetPoint" />
          </mxGeometry>
        </mxCell>
        <mxCell id="aiIth0CipxrGkPAbReuv-88" value="Функция обхода по дереву&lt;br&gt;central_traversal()&lt;br&gt;Вход: корень дерева root, &lt;br&gt;массив sorted_list&lt;br&gt;Выход: заполненный массив sorted_list" style="strokeWidth=1;html=1;shape=mxgraph.flowchart.annotation_1;align=left;pointerEvents=1;rounded=0;shadow=0;spacingLeft=5;" parent="1" vertex="1">
          <mxGeometry x="595" y="1350" width="40" height="70" as="geometry" />
        </mxCell>
        <mxCell id="aiIth0CipxrGkPAbReuv-90" style="endArrow=none;html=1;rounded=0;" parent="1" source="aiIth0CipxrGkPAbReuv-91" edge="1">
          <mxGeometry relative="1" as="geometry">
            <mxPoint x="455" y="1435.5" as="targetPoint" />
          </mxGeometry>
        </mxCell>
        <mxCell id="aiIth0CipxrGkPAbReuv-91" value="Начало" style="html=1;dashed=0;whitespace=wrap;shape=mxgraph.dfd.start" parent="1" vertex="1">
          <mxGeometry x="355" y="1355.5" width="200" height="60" as="geometry" />
        </mxCell>
        <mxCell id="aiIth0CipxrGkPAbReuv-105" value="Конец" style="html=1;dashed=0;whitespace=wrap;shape=mxgraph.dfd.start" parent="1" vertex="1">
          <mxGeometry x="355" y="1780.5" width="200" height="60" as="geometry" />
        </mxCell>
        <mxCell id="aiIth0CipxrGkPAbReuv-111" style="endArrow=none;html=1;rounded=0;" parent="1" source="aiIth0CipxrGkPAbReuv-106" target="aiIth0CipxrGkPAbReuv-108" edge="1">
          <mxGeometry relative="1" as="geometry">
            <Array as="points">
              <mxPoint x="300" y="1471" />
            </Array>
          </mxGeometry>
        </mxCell>
        <mxCell id="aiIth0CipxrGkPAbReuv-115" style="edgeStyle=orthogonalEdgeStyle;rounded=0;orthogonalLoop=1;jettySize=auto;html=1;exitX=1;exitY=0.5;exitDx=0;exitDy=0;" parent="1" source="aiIth0CipxrGkPAbReuv-106" target="aiIth0CipxrGkPAbReuv-105" edge="1">
          <mxGeometry relative="1" as="geometry">
            <Array as="points">
              <mxPoint x="600" y="1470.5" />
              <mxPoint x="600" y="1755.5" />
              <mxPoint x="455" y="1755.5" />
            </Array>
          </mxGeometry>
        </mxCell>
        <mxCell id="aiIth0CipxrGkPAbReuv-106" value="root = None?" style="rhombus;whiteSpace=wrap;html=1;rounded=0;shadow=0;strokeWidth=1;" parent="1" vertex="1">
          <mxGeometry x="350" y="1435.5" width="210" height="70" as="geometry" />
        </mxCell>
        <mxCell id="aiIth0CipxrGkPAbReuv-108" value="Вызов функции&lt;br&gt;centered_traversal(root.left, sorted_list)" style="shape=process;whiteSpace=wrap;html=1;backgroundOutline=1;" parent="1" vertex="1">
          <mxGeometry x="200" y="1515.5" width="200" height="60" as="geometry" />
        </mxCell>
        <mxCell id="aiIth0CipxrGkPAbReuv-109" value="добавление в sorted_list &lt;br&gt;значения root.value" style="html=1;dashed=0;whitespace=wrap;" parent="1" vertex="1">
          <mxGeometry x="200" y="1595.5" width="200" height="60" as="geometry" />
        </mxCell>
        <mxCell id="aiIth0CipxrGkPAbReuv-110" value="Вызов функции&lt;br&gt;centered_traversal(root.right, sorted_list)" style="shape=process;whiteSpace=wrap;html=1;backgroundOutline=1;" parent="1" vertex="1">
          <mxGeometry x="200" y="1675.5" width="200" height="60" as="geometry" />
        </mxCell>
        <mxCell id="aiIth0CipxrGkPAbReuv-112" value="" style="endArrow=none;html=1;rounded=0;entryX=0.5;entryY=1;entryDx=0;entryDy=0;" parent="1" source="aiIth0CipxrGkPAbReuv-109" target="aiIth0CipxrGkPAbReuv-108" edge="1">
          <mxGeometry width="50" height="50" relative="1" as="geometry">
            <mxPoint x="420" y="1835.5" as="sourcePoint" />
            <mxPoint x="470" y="1785.5" as="targetPoint" />
          </mxGeometry>
        </mxCell>
        <mxCell id="aiIth0CipxrGkPAbReuv-113" value="" style="endArrow=none;html=1;rounded=0;entryX=0.5;entryY=1;entryDx=0;entryDy=0;exitX=0.5;exitY=0;exitDx=0;exitDy=0;" parent="1" source="aiIth0CipxrGkPAbReuv-110" target="aiIth0CipxrGkPAbReuv-109" edge="1">
          <mxGeometry width="50" height="50" relative="1" as="geometry">
            <mxPoint x="420" y="1835.5" as="sourcePoint" />
            <mxPoint x="470" y="1785.5" as="targetPoint" />
          </mxGeometry>
        </mxCell>
        <mxCell id="aiIth0CipxrGkPAbReuv-114" style="edgeStyle=orthogonalEdgeStyle;rounded=0;orthogonalLoop=1;jettySize=auto;html=1;exitX=0.5;exitY=1;exitDx=0;exitDy=0;entryX=0.5;entryY=0.5;entryDx=0;entryDy=-30;entryPerimeter=0;" parent="1" source="aiIth0CipxrGkPAbReuv-110" target="aiIth0CipxrGkPAbReuv-105" edge="1">
          <mxGeometry relative="1" as="geometry">
            <Array as="points">
              <mxPoint x="300" y="1755.5" />
              <mxPoint x="455" y="1755.5" />
            </Array>
          </mxGeometry>
        </mxCell>
        <mxCell id="aiIth0CipxrGkPAbReuv-116" value="Да" style="text;html=1;align=center;verticalAlign=middle;resizable=0;points=[];autosize=1;strokeColor=none;fillColor=none;" parent="1" vertex="1">
          <mxGeometry x="555" y="1445.5" width="40" height="30" as="geometry" />
        </mxCell>
        <mxCell id="99DAa5BFEyPjdD2i35ZQ-1" style="orthogonalLoop=1;jettySize=auto;html=1;exitX=0;exitY=0.5;exitDx=0;exitDy=0;exitPerimeter=0;entryX=1;entryY=0.5;entryDx=0;entryDy=0;strokeColor=default;rounded=0;dashed=1;endArrow=none;endFill=0;" edge="1" parent="1" source="99DAa5BFEyPjdD2i35ZQ-2">
          <mxGeometry relative="1" as="geometry">
            <mxPoint x="330" y="1305" as="targetPoint" />
          </mxGeometry>
        </mxCell>
        <mxCell id="99DAa5BFEyPjdD2i35ZQ-2" value="Возврат массива sorted_list" style="strokeWidth=1;html=1;shape=mxgraph.flowchart.annotation_1;align=left;pointerEvents=1;rounded=0;shadow=0;spacingLeft=5;" vertex="1" parent="1">
          <mxGeometry x="370" y="1275" width="40" height="60" as="geometry" />
        </mxCell>
      </root>
    </mxGraphModel>
  </diagram>
  <diagram id="zfXj14Y7ikGh8VoGe9d5" name="бин дерево 2">
    <mxGraphModel dx="520" dy="843" grid="1" gridSize="10" guides="1" tooltips="1" connect="1" arrows="1" fold="1" page="1" pageScale="1" pageWidth="1100" pageHeight="850" math="0" shadow="0">
      <root>
        <mxCell id="0" />
        <mxCell id="1" parent="0" />
        <mxCell id="OkZCXIAg2Nptflxo6sGK-1" style="orthogonalLoop=1;jettySize=auto;html=1;exitX=0;exitY=0.5;exitDx=0;exitDy=0;exitPerimeter=0;entryX=1;entryY=0.5;entryDx=0;entryDy=0;strokeColor=default;rounded=0;dashed=1;endArrow=none;endFill=0;" parent="1" source="OkZCXIAg2Nptflxo6sGK-2" edge="1">
          <mxGeometry relative="1" as="geometry">
            <mxPoint x="1790" y="525" as="targetPoint" />
          </mxGeometry>
        </mxCell>
        <mxCell id="OkZCXIAg2Nptflxo6sGK-2" value="Функция добавления элемента&lt;br&gt;в дерево insert_node()&lt;br&gt;Вход: корень root, элемент value&lt;br&gt;Выход: корень root &lt;br&gt;с добавленным элементом" style="strokeWidth=1;html=1;shape=mxgraph.flowchart.annotation_1;align=left;pointerEvents=1;rounded=0;shadow=0;spacingLeft=5;" parent="1" vertex="1">
          <mxGeometry x="1830" y="490" width="40" height="70" as="geometry" />
        </mxCell>
        <mxCell id="OkZCXIAg2Nptflxo6sGK-3" style="edgeStyle=orthogonalEdgeStyle;rounded=0;orthogonalLoop=1;jettySize=auto;html=1;exitX=1;exitY=0.5;exitDx=0;exitDy=0;" parent="1" source="OkZCXIAg2Nptflxo6sGK-5" target="OkZCXIAg2Nptflxo6sGK-10" edge="1">
          <mxGeometry relative="1" as="geometry" />
        </mxCell>
        <mxCell id="OkZCXIAg2Nptflxo6sGK-4" style="endArrow=none;html=1;rounded=0;" parent="1" source="OkZCXIAg2Nptflxo6sGK-5" target="OkZCXIAg2Nptflxo6sGK-13" edge="1">
          <mxGeometry relative="1" as="geometry">
            <Array as="points">
              <mxPoint x="1505" y="610" />
            </Array>
          </mxGeometry>
        </mxCell>
        <mxCell id="OkZCXIAg2Nptflxo6sGK-5" value="root = None?" style="rhombus;whiteSpace=wrap;html=1;rounded=0;shadow=0;strokeWidth=1;" parent="1" vertex="1">
          <mxGeometry x="1585" y="575" width="210" height="70" as="geometry" />
        </mxCell>
        <mxCell id="OkZCXIAg2Nptflxo6sGK-6" value="Да" style="text;html=1;align=center;verticalAlign=middle;resizable=0;points=[];autosize=1;strokeColor=none;fillColor=none;" parent="1" vertex="1">
          <mxGeometry x="1795" y="580" width="40" height="30" as="geometry" />
        </mxCell>
        <mxCell id="OkZCXIAg2Nptflxo6sGK-7" style="endArrow=none;html=1;rounded=0;" parent="1" source="OkZCXIAg2Nptflxo6sGK-8" edge="1">
          <mxGeometry relative="1" as="geometry">
            <mxPoint x="1690" y="575" as="targetPoint" />
          </mxGeometry>
        </mxCell>
        <mxCell id="OkZCXIAg2Nptflxo6sGK-8" value="Начало" style="html=1;dashed=0;whitespace=wrap;shape=mxgraph.dfd.start" parent="1" vertex="1">
          <mxGeometry x="1590" y="495" width="200" height="60" as="geometry" />
        </mxCell>
        <mxCell id="OkZCXIAg2Nptflxo6sGK-9" style="endArrow=none;html=1;rounded=0;" parent="1" source="OkZCXIAg2Nptflxo6sGK-10" edge="1">
          <mxGeometry relative="1" as="geometry">
            <Array as="points">
              <mxPoint x="1840" y="830" />
              <mxPoint x="1690" y="830" />
            </Array>
            <mxPoint x="1690" y="860" as="targetPoint" />
          </mxGeometry>
        </mxCell>
        <mxCell id="OkZCXIAg2Nptflxo6sGK-10" value="root = Node (value)" style="html=1;dashed=0;whitespace=wrap;" parent="1" vertex="1">
          <mxGeometry x="1750" y="650" width="180" height="60" as="geometry" />
        </mxCell>
        <mxCell id="OkZCXIAg2Nptflxo6sGK-11" style="edgeStyle=orthogonalEdgeStyle;rounded=0;orthogonalLoop=1;jettySize=auto;html=1;exitX=1;exitY=0.5;exitDx=0;exitDy=0;" parent="1" source="OkZCXIAg2Nptflxo6sGK-13" edge="1">
          <mxGeometry relative="1" as="geometry">
            <mxPoint x="1645" y="726" as="targetPoint" />
          </mxGeometry>
        </mxCell>
        <mxCell id="OkZCXIAg2Nptflxo6sGK-12" style="endArrow=none;html=1;rounded=0;" parent="1" source="OkZCXIAg2Nptflxo6sGK-13" edge="1">
          <mxGeometry relative="1" as="geometry">
            <mxPoint x="1375" y="726" as="targetPoint" />
            <Array as="points">
              <mxPoint x="1375" y="680" />
            </Array>
          </mxGeometry>
        </mxCell>
        <mxCell id="OkZCXIAg2Nptflxo6sGK-13" value="value &amp;lt; root.value?" style="rhombus;whiteSpace=wrap;html=1;rounded=0;shadow=0;strokeWidth=1;" parent="1" vertex="1">
          <mxGeometry x="1400" y="645" width="210" height="70" as="geometry" />
        </mxCell>
        <mxCell id="OkZCXIAg2Nptflxo6sGK-14" style="endArrow=none;html=1;rounded=0;" parent="1" edge="1">
          <mxGeometry relative="1" as="geometry">
            <mxPoint x="1390" y="786" as="sourcePoint" />
            <mxPoint x="1690" y="860" as="targetPoint" />
            <Array as="points">
              <mxPoint x="1380" y="786" />
              <mxPoint x="1380" y="810" />
              <mxPoint x="1515" y="810" />
              <mxPoint x="1515" y="830" />
              <mxPoint x="1690" y="830" />
            </Array>
          </mxGeometry>
        </mxCell>
        <mxCell id="OkZCXIAg2Nptflxo6sGK-15" value="Да" style="text;html=1;align=center;verticalAlign=middle;resizable=0;points=[];autosize=1;strokeColor=none;fillColor=none;" parent="1" vertex="1">
          <mxGeometry x="1610" y="660" width="40" height="30" as="geometry" />
        </mxCell>
        <mxCell id="OkZCXIAg2Nptflxo6sGK-16" style="endArrow=none;html=1;rounded=0;" parent="1" target="OkZCXIAg2Nptflxo6sGK-19" edge="1">
          <mxGeometry relative="1" as="geometry">
            <mxPoint x="1690" y="920" as="sourcePoint" />
          </mxGeometry>
        </mxCell>
        <mxCell id="OkZCXIAg2Nptflxo6sGK-18" value="" style="endArrow=none;html=1;rounded=0;" parent="1" edge="1">
          <mxGeometry width="50" height="50" relative="1" as="geometry">
            <mxPoint x="1510" y="810" as="sourcePoint" />
            <mxPoint x="1645" y="786" as="targetPoint" />
            <Array as="points">
              <mxPoint x="1645" y="810" />
            </Array>
          </mxGeometry>
        </mxCell>
        <mxCell id="OkZCXIAg2Nptflxo6sGK-19" value="Конец" style="html=1;dashed=0;whitespace=wrap;shape=mxgraph.dfd.start" parent="1" vertex="1">
          <mxGeometry x="1590" y="860" width="200" height="60" as="geometry" />
        </mxCell>
        <mxCell id="OkZCXIAg2Nptflxo6sGK-20" value="root.right = insert_node(root, value)" style="shape=process;whiteSpace=wrap;html=1;backgroundOutline=1;" parent="1" vertex="1">
          <mxGeometry x="1280" y="726" width="190" height="60" as="geometry" />
        </mxCell>
        <mxCell id="OkZCXIAg2Nptflxo6sGK-21" value="&lt;span style=&quot;color: rgb(0, 0, 0); font-family: Helvetica; font-size: 12px; font-style: normal; font-variant-ligatures: normal; font-variant-caps: normal; font-weight: 400; letter-spacing: normal; orphans: 2; text-align: center; text-indent: 0px; text-transform: none; widows: 2; word-spacing: 0px; -webkit-text-stroke-width: 0px; background-color: rgb(251, 251, 251); text-decoration-thickness: initial; text-decoration-style: initial; text-decoration-color: initial; float: none; display: inline !important;&quot;&gt;root.left = insert_node(root, value)&lt;/span&gt;" style="shape=process;whiteSpace=wrap;html=1;backgroundOutline=1;" parent="1" vertex="1">
          <mxGeometry x="1550" y="726" width="190" height="60" as="geometry" />
        </mxCell>
        <mxCell id="VZkfbBIyLdwSRbpA5vic-1" style="orthogonalLoop=1;jettySize=auto;html=1;exitX=0;exitY=0.5;exitDx=0;exitDy=0;exitPerimeter=0;entryX=1;entryY=0.5;entryDx=0;entryDy=0;strokeColor=default;rounded=0;dashed=1;endArrow=none;endFill=0;" edge="1" parent="1" source="VZkfbBIyLdwSRbpA5vic-2">
          <mxGeometry relative="1" as="geometry">
            <mxPoint x="1790" y="890" as="targetPoint" />
          </mxGeometry>
        </mxCell>
        <mxCell id="VZkfbBIyLdwSRbpA5vic-2" value="Возврат root" style="strokeWidth=1;html=1;shape=mxgraph.flowchart.annotation_1;align=left;pointerEvents=1;rounded=0;shadow=0;spacingLeft=5;" vertex="1" parent="1">
          <mxGeometry x="1830" y="860" width="40" height="60" as="geometry" />
        </mxCell>
      </root>
    </mxGraphModel>
  </diagram>
  <diagram id="pyNp0roaNETwnUTJ3PLq" name="слияние">
    <mxGraphModel dx="1620" dy="843" grid="1" gridSize="10" guides="1" tooltips="1" connect="1" arrows="1" fold="1" page="1" pageScale="1" pageWidth="1100" pageHeight="850" math="0" shadow="0">
      <root>
        <mxCell id="0" />
        <mxCell id="1" parent="0" />
        <mxCell id="leb_1mlTS67hNaxNko2o-69" style="orthogonalLoop=1;jettySize=auto;html=1;exitX=0;exitY=0.5;exitDx=0;exitDy=0;exitPerimeter=0;entryX=1;entryY=0.5;entryDx=0;entryDy=0;strokeColor=default;rounded=0;dashed=1;endArrow=none;endFill=0;" parent="1" source="leb_1mlTS67hNaxNko2o-70" edge="1">
          <mxGeometry relative="1" as="geometry">
            <mxPoint x="350" y="770" as="targetPoint" />
          </mxGeometry>
        </mxCell>
        <mxCell id="leb_1mlTS67hNaxNko2o-70" value="Сортировка слиянием merge_sort&lt;br&gt;Вход: массив a&amp;nbsp;с элементами &lt;br&gt;в произвольном порядке&lt;br&gt;Выход: упорядоченный массив a" style="strokeWidth=1;html=1;shape=mxgraph.flowchart.annotation_1;align=left;pointerEvents=1;rounded=0;shadow=0;spacingLeft=5;" parent="1" vertex="1">
          <mxGeometry x="390" y="740" width="40" height="60" as="geometry" />
        </mxCell>
        <mxCell id="leb_1mlTS67hNaxNko2o-72" style="endArrow=none;html=1;rounded=0;" parent="1" source="leb_1mlTS67hNaxNko2o-73" edge="1">
          <mxGeometry relative="1" as="geometry">
            <mxPoint x="250" y="820" as="targetPoint" />
          </mxGeometry>
        </mxCell>
        <mxCell id="leb_1mlTS67hNaxNko2o-73" value="Начало" style="html=1;dashed=0;whitespace=wrap;shape=mxgraph.dfd.start" parent="1" vertex="1">
          <mxGeometry x="150" y="740" width="200" height="60" as="geometry" />
        </mxCell>
        <mxCell id="leb_1mlTS67hNaxNko2o-87" value="Конец" style="html=1;dashed=0;whitespace=wrap;shape=mxgraph.dfd.start" parent="1" vertex="1">
          <mxGeometry x="150" y="1250" width="200" height="60" as="geometry" />
        </mxCell>
        <mxCell id="leb_1mlTS67hNaxNko2o-105" style="edgeStyle=orthogonalEdgeStyle;rounded=0;orthogonalLoop=1;jettySize=auto;html=1;exitX=1;exitY=0.5;exitDx=0;exitDy=0;" parent="1" source="leb_1mlTS67hNaxNko2o-103" target="leb_1mlTS67hNaxNko2o-104" edge="1">
          <mxGeometry relative="1" as="geometry" />
        </mxCell>
        <mxCell id="leb_1mlTS67hNaxNko2o-108" style="endArrow=none;html=1;rounded=0;м" parent="1" source="leb_1mlTS67hNaxNko2o-103" target="leb_1mlTS67hNaxNko2o-107" edge="1">
          <mxGeometry relative="1" as="geometry">
            <Array as="points">
              <mxPoint x="120" y="855" />
            </Array>
          </mxGeometry>
        </mxCell>
        <mxCell id="leb_1mlTS67hNaxNko2o-103" value="len(a) &amp;lt;= 1?" style="rhombus;whiteSpace=wrap;html=1;rounded=0;shadow=0;strokeWidth=1;" parent="1" vertex="1">
          <mxGeometry x="145" y="820" width="210" height="70" as="geometry" />
        </mxCell>
        <mxCell id="2S5c3TeXlQs8S8Q4Sz_H-13" style="endArrow=none;html=1;rounded=0;" parent="1" edge="1">
          <mxGeometry relative="1" as="geometry">
            <Array as="points">
              <mxPoint x="390" y="1230" />
              <mxPoint x="250" y="1230" />
            </Array>
            <mxPoint x="390" y="890" as="sourcePoint" />
            <mxPoint x="250" y="1250" as="targetPoint" />
          </mxGeometry>
        </mxCell>
        <mxCell id="leb_1mlTS67hNaxNko2o-104" value="arr =&amp;nbsp;a" style="html=1;dashed=0;whitespace=wrap;" parent="1" vertex="1">
          <mxGeometry x="290" y="900" width="200" height="60" as="geometry" />
        </mxCell>
        <mxCell id="leb_1mlTS67hNaxNko2o-106" value="Да" style="text;html=1;align=center;verticalAlign=middle;resizable=0;points=[];autosize=1;strokeColor=none;fillColor=none;" parent="1" vertex="1">
          <mxGeometry x="355" y="830" width="40" height="30" as="geometry" />
        </mxCell>
        <mxCell id="leb_1mlTS67hNaxNko2o-107" value="mid = len(a) / 2" style="html=1;dashed=0;whitespace=wrap;" parent="1" vertex="1">
          <mxGeometry x="20" y="900" width="200" height="60" as="geometry" />
        </mxCell>
        <mxCell id="leb_1mlTS67hNaxNko2o-109" value="left = merge_sort(часть массива a от 0 до mid)" style="shape=process;whiteSpace=wrap;html=1;backgroundOutline=1;" parent="1" vertex="1">
          <mxGeometry x="20" y="980" width="200" height="60" as="geometry" />
        </mxCell>
        <mxCell id="leb_1mlTS67hNaxNko2o-110" value="right = merge_sort(часть массива a от mid до len(a))" style="shape=process;whiteSpace=wrap;html=1;backgroundOutline=1;" parent="1" vertex="1">
          <mxGeometry x="20" y="1060" width="200" height="60" as="geometry" />
        </mxCell>
        <mxCell id="leb_1mlTS67hNaxNko2o-111" value="arr = merge(left, right)" style="shape=process;whiteSpace=wrap;html=1;backgroundOutline=1;" parent="1" vertex="1">
          <mxGeometry x="20" y="1140" width="200" height="60" as="geometry" />
        </mxCell>
        <mxCell id="2S5c3TeXlQs8S8Q4Sz_H-12" style="endArrow=none;html=1;rounded=0;" parent="1" edge="1">
          <mxGeometry relative="1" as="geometry">
            <Array as="points">
              <mxPoint x="120" y="1230" />
              <mxPoint x="250" y="1230" />
            </Array>
            <mxPoint x="120" y="1200" as="sourcePoint" />
            <mxPoint x="250" y="1245" as="targetPoint" />
          </mxGeometry>
        </mxCell>
        <mxCell id="2S5c3TeXlQs8S8Q4Sz_H-5" value="" style="endArrow=none;html=1;rounded=0;entryX=0.5;entryY=1;entryDx=0;entryDy=0;exitX=0.5;exitY=0;exitDx=0;exitDy=0;" parent="1" source="leb_1mlTS67hNaxNko2o-109" target="leb_1mlTS67hNaxNko2o-107" edge="1">
          <mxGeometry width="50" height="50" relative="1" as="geometry">
            <mxPoint x="260" y="1090" as="sourcePoint" />
            <mxPoint x="310" y="1040" as="targetPoint" />
          </mxGeometry>
        </mxCell>
        <mxCell id="2S5c3TeXlQs8S8Q4Sz_H-6" value="" style="endArrow=none;html=1;rounded=0;entryX=0.5;entryY=1;entryDx=0;entryDy=0;" parent="1" source="leb_1mlTS67hNaxNko2o-110" target="leb_1mlTS67hNaxNko2o-109" edge="1">
          <mxGeometry width="50" height="50" relative="1" as="geometry">
            <mxPoint x="260" y="1090" as="sourcePoint" />
            <mxPoint x="310" y="1040" as="targetPoint" />
          </mxGeometry>
        </mxCell>
        <mxCell id="2S5c3TeXlQs8S8Q4Sz_H-7" value="" style="endArrow=none;html=1;rounded=0;entryX=0.5;entryY=1;entryDx=0;entryDy=0;" parent="1" source="leb_1mlTS67hNaxNko2o-111" target="leb_1mlTS67hNaxNko2o-110" edge="1">
          <mxGeometry width="50" height="50" relative="1" as="geometry">
            <mxPoint x="260" y="1090" as="sourcePoint" />
            <mxPoint x="310" y="1040" as="targetPoint" />
          </mxGeometry>
        </mxCell>
        <mxCell id="2S5c3TeXlQs8S8Q4Sz_H-11" value="" style="endArrow=none;html=1;rounded=0;entryX=0.5;entryY=1;entryDx=0;entryDy=0;" parent="1" target="leb_1mlTS67hNaxNko2o-111" edge="1">
          <mxGeometry width="50" height="50" relative="1" as="geometry">
            <mxPoint x="120" y="1215" as="sourcePoint" />
            <mxPoint x="310" y="1040" as="targetPoint" />
          </mxGeometry>
        </mxCell>
        <mxCell id="Cngk4j5q3EP4Lsu1ooKV-2" style="orthogonalLoop=1;jettySize=auto;html=1;exitX=0;exitY=0.5;exitDx=0;exitDy=0;exitPerimeter=0;entryX=1;entryY=0.5;entryDx=0;entryDy=0;strokeColor=default;rounded=0;dashed=1;endArrow=none;endFill=0;" edge="1" parent="1" source="Cngk4j5q3EP4Lsu1ooKV-3">
          <mxGeometry relative="1" as="geometry">
            <mxPoint x="350" y="1280" as="targetPoint" />
          </mxGeometry>
        </mxCell>
        <mxCell id="Cngk4j5q3EP4Lsu1ooKV-3" value="Возврат arr" style="strokeWidth=1;html=1;shape=mxgraph.flowchart.annotation_1;align=left;pointerEvents=1;rounded=0;shadow=0;spacingLeft=5;" vertex="1" parent="1">
          <mxGeometry x="390" y="1250" width="50" height="60" as="geometry" />
        </mxCell>
      </root>
    </mxGraphModel>
  </diagram>
  <diagram id="05SUytf7aKaDM3ZJuGS0" name="слияние 2">
    <mxGraphModel dx="1620" dy="-7" grid="1" gridSize="10" guides="1" tooltips="1" connect="1" arrows="1" fold="1" page="1" pageScale="1" pageWidth="1100" pageHeight="850" math="0" shadow="0">
      <root>
        <mxCell id="0" />
        <mxCell id="1" parent="0" />
        <mxCell id="un_Y9C6OP6CCxurtZeMn-1" style="orthogonalLoop=1;jettySize=auto;html=1;exitX=0;exitY=0.5;exitDx=0;exitDy=0;exitPerimeter=0;entryX=1;entryY=0.5;entryDx=0;entryDy=0;strokeColor=default;rounded=0;dashed=1;endArrow=none;endFill=0;" parent="1" source="un_Y9C6OP6CCxurtZeMn-2" edge="1">
          <mxGeometry relative="1" as="geometry">
            <mxPoint x="905" y="900" as="targetPoint" />
          </mxGeometry>
        </mxCell>
        <mxCell id="un_Y9C6OP6CCxurtZeMn-2" value="Функция слияния merge()&lt;br&gt;Вход: 2 части left и right&lt;br&gt;Выход: объединенный&lt;br&gt;массив merged" style="strokeWidth=1;html=1;shape=mxgraph.flowchart.annotation_1;align=left;pointerEvents=1;rounded=0;shadow=0;spacingLeft=5;" parent="1" vertex="1">
          <mxGeometry x="945" y="870" width="40" height="60" as="geometry" />
        </mxCell>
        <mxCell id="un_Y9C6OP6CCxurtZeMn-3" value="Начало" style="html=1;dashed=0;whitespace=wrap;shape=mxgraph.dfd.start" parent="1" vertex="1">
          <mxGeometry x="705" y="870" width="200" height="60" as="geometry" />
        </mxCell>
        <mxCell id="un_Y9C6OP6CCxurtZeMn-4" value="Конец" style="html=1;dashed=0;whitespace=wrap;shape=mxgraph.dfd.start" parent="1" vertex="1">
          <mxGeometry x="705" y="1850" width="200" height="60" as="geometry" />
        </mxCell>
        <mxCell id="un_Y9C6OP6CCxurtZeMn-5" style="edgeStyle=orthogonalEdgeStyle;rounded=0;orthogonalLoop=1;jettySize=auto;html=1;exitX=1;exitY=0.5;exitDx=0;exitDy=0;" parent="1" source="un_Y9C6OP6CCxurtZeMn-7" target="un_Y9C6OP6CCxurtZeMn-13" edge="1">
          <mxGeometry relative="1" as="geometry" />
        </mxCell>
        <mxCell id="un_Y9C6OP6CCxurtZeMn-6" style="endArrow=none;html=1;rounded=0;edgeStyle=orthogonalEdgeStyle;exitX=0;exitY=0.5;exitDx=0;exitDy=0;" parent="1" source="un_Y9C6OP6CCxurtZeMn-7" target="un_Y9C6OP6CCxurtZeMn-15" edge="1">
          <mxGeometry relative="1" as="geometry" />
        </mxCell>
        <mxCell id="un_Y9C6OP6CCxurtZeMn-7" value="left[i] &amp;lt; right[j]?" style="rhombus;whiteSpace=wrap;html=1;rounded=0;shadow=0;strokeWidth=1;" parent="1" vertex="1">
          <mxGeometry x="700" y="1110" width="210" height="70" as="geometry" />
        </mxCell>
        <mxCell id="un_Y9C6OP6CCxurtZeMn-8" value="Да" style="text;html=1;align=center;verticalAlign=middle;resizable=0;points=[];autosize=1;strokeColor=none;fillColor=none;" parent="1" vertex="1">
          <mxGeometry x="905" y="1120" width="40" height="30" as="geometry" />
        </mxCell>
        <mxCell id="un_Y9C6OP6CCxurtZeMn-9" value="Создание массива merged" style="html=1;dashed=0;whitespace=wrap;" parent="1" vertex="1">
          <mxGeometry x="705" y="950" width="200" height="60" as="geometry" />
        </mxCell>
        <mxCell id="un_Y9C6OP6CCxurtZeMn-10" style="endArrow=none;html=1;rounded=0;" parent="1" source="un_Y9C6OP6CCxurtZeMn-11" target="un_Y9C6OP6CCxurtZeMn-7" edge="1">
          <mxGeometry relative="1" as="geometry" />
        </mxCell>
        <mxCell id="un_Y9C6OP6CCxurtZeMn-11" value="Цикл по i и j от 0 до len(left) - 1&amp;nbsp;&lt;br&gt;и len(right) - 1 с шагом 1" style="shape=loopLimit;whiteSpace=wrap;html=1;direction=east" parent="1" vertex="1">
          <mxGeometry x="705" y="1030" width="200" height="60" as="geometry" />
        </mxCell>
        <mxCell id="un_Y9C6OP6CCxurtZeMn-12" style="endArrow=none;html=1;rounded=0;edgeStyle=orthogonalEdgeStyle;" parent="1" source="un_Y9C6OP6CCxurtZeMn-13" target="un_Y9C6OP6CCxurtZeMn-16" edge="1">
          <mxGeometry relative="1" as="geometry" />
        </mxCell>
        <mxCell id="un_Y9C6OP6CCxurtZeMn-13" value="добавление в merged&lt;br&gt;значения left[i]" style="html=1;dashed=0;whitespace=wrap;" parent="1" vertex="1">
          <mxGeometry x="840" y="1180" width="200" height="60" as="geometry" />
        </mxCell>
        <mxCell id="un_Y9C6OP6CCxurtZeMn-14" style="endArrow=none;html=1;rounded=0;edgeStyle=orthogonalEdgeStyle;" parent="1" source="un_Y9C6OP6CCxurtZeMn-15" target="un_Y9C6OP6CCxurtZeMn-16" edge="1">
          <mxGeometry relative="1" as="geometry" />
        </mxCell>
        <mxCell id="un_Y9C6OP6CCxurtZeMn-15" value="добавление в merged&lt;br&gt;значения right[j]" style="html=1;dashed=0;whitespace=wrap;" parent="1" vertex="1">
          <mxGeometry x="570" y="1180" width="200" height="60" as="geometry" />
        </mxCell>
        <mxCell id="un_Y9C6OP6CCxurtZeMn-16" value="Конец цикла по i и j&amp;nbsp;&lt;br&gt;с сохранением значений i и j" style="shape=loopLimit;whiteSpace=wrap;html=1;strokeWidth=1;direction=west;" parent="1" vertex="1">
          <mxGeometry x="705" y="1290" width="200" height="60" as="geometry" />
        </mxCell>
        <mxCell id="un_Y9C6OP6CCxurtZeMn-17" value="Цикл по i&amp;nbsp; до len(left) - 1&lt;br&gt;с шагом 1" style="shape=loopLimit;whiteSpace=wrap;html=1;direction=east" parent="1" vertex="1">
          <mxGeometry x="705" y="1370" width="200" height="60" as="geometry" />
        </mxCell>
        <mxCell id="un_Y9C6OP6CCxurtZeMn-18" value="Добавление в merged&lt;br&gt;значения left[i]" style="html=1;dashed=0;whitespace=wrap;" parent="1" vertex="1">
          <mxGeometry x="705" y="1450" width="200" height="60" as="geometry" />
        </mxCell>
        <mxCell id="un_Y9C6OP6CCxurtZeMn-19" value="Конец цикла по i&amp;nbsp;" style="shape=loopLimit;whiteSpace=wrap;html=1;strokeWidth=1;direction=west;" parent="1" vertex="1">
          <mxGeometry x="705" y="1530" width="200" height="60" as="geometry" />
        </mxCell>
        <mxCell id="un_Y9C6OP6CCxurtZeMn-20" value="" style="endArrow=none;html=1;rounded=0;entryX=0.5;entryY=1;entryDx=0;entryDy=0;" parent="1" source="un_Y9C6OP6CCxurtZeMn-11" target="un_Y9C6OP6CCxurtZeMn-9" edge="1">
          <mxGeometry width="50" height="50" relative="1" as="geometry">
            <mxPoint x="920" y="1070" as="sourcePoint" />
            <mxPoint x="970" y="1020" as="targetPoint" />
          </mxGeometry>
        </mxCell>
        <mxCell id="un_Y9C6OP6CCxurtZeMn-21" value="" style="endArrow=none;html=1;rounded=0;entryX=0.5;entryY=0;entryDx=0;entryDy=0;" parent="1" source="un_Y9C6OP6CCxurtZeMn-17" target="un_Y9C6OP6CCxurtZeMn-16" edge="1">
          <mxGeometry width="50" height="50" relative="1" as="geometry">
            <mxPoint x="920" y="1350" as="sourcePoint" />
            <mxPoint x="970" y="1300" as="targetPoint" />
          </mxGeometry>
        </mxCell>
        <mxCell id="un_Y9C6OP6CCxurtZeMn-22" value="" style="endArrow=none;html=1;rounded=0;entryX=0.5;entryY=0;entryDx=0;entryDy=0;" parent="1" source="un_Y9C6OP6CCxurtZeMn-17" target="un_Y9C6OP6CCxurtZeMn-18" edge="1">
          <mxGeometry width="50" height="50" relative="1" as="geometry">
            <mxPoint x="920" y="1350" as="sourcePoint" />
            <mxPoint x="970" y="1300" as="targetPoint" />
          </mxGeometry>
        </mxCell>
        <mxCell id="un_Y9C6OP6CCxurtZeMn-23" value="" style="endArrow=none;html=1;rounded=0;entryX=0.5;entryY=1;entryDx=0;entryDy=0;" parent="1" source="un_Y9C6OP6CCxurtZeMn-18" target="un_Y9C6OP6CCxurtZeMn-19" edge="1">
          <mxGeometry width="50" height="50" relative="1" as="geometry">
            <mxPoint x="920" y="1350" as="sourcePoint" />
            <mxPoint x="970" y="1300" as="targetPoint" />
          </mxGeometry>
        </mxCell>
        <mxCell id="un_Y9C6OP6CCxurtZeMn-24" value="Цикл по j до len(right) - 1&lt;br&gt;с шагом 1" style="shape=loopLimit;whiteSpace=wrap;html=1;direction=east" parent="1" vertex="1">
          <mxGeometry x="705" y="1610" width="200" height="60" as="geometry" />
        </mxCell>
        <mxCell id="un_Y9C6OP6CCxurtZeMn-25" value="Добавление в merged&lt;br&gt;значения right[j]" style="html=1;dashed=0;whitespace=wrap;" parent="1" vertex="1">
          <mxGeometry x="705" y="1690" width="200" height="60" as="geometry" />
        </mxCell>
        <mxCell id="un_Y9C6OP6CCxurtZeMn-26" value="Конец цикла по&amp;nbsp;j" style="shape=loopLimit;whiteSpace=wrap;html=1;strokeWidth=1;direction=west;" parent="1" vertex="1">
          <mxGeometry x="705" y="1770" width="200" height="60" as="geometry" />
        </mxCell>
        <mxCell id="un_Y9C6OP6CCxurtZeMn-27" value="" style="endArrow=none;html=1;rounded=0;entryX=0.5;entryY=0;entryDx=0;entryDy=0;" parent="1" source="un_Y9C6OP6CCxurtZeMn-24" edge="1">
          <mxGeometry width="50" height="50" relative="1" as="geometry">
            <mxPoint x="920" y="1590" as="sourcePoint" />
            <mxPoint x="805" y="1590" as="targetPoint" />
          </mxGeometry>
        </mxCell>
        <mxCell id="un_Y9C6OP6CCxurtZeMn-28" value="" style="endArrow=none;html=1;rounded=0;entryX=0.5;entryY=0;entryDx=0;entryDy=0;" parent="1" source="un_Y9C6OP6CCxurtZeMn-24" target="un_Y9C6OP6CCxurtZeMn-25" edge="1">
          <mxGeometry width="50" height="50" relative="1" as="geometry">
            <mxPoint x="920" y="1590" as="sourcePoint" />
            <mxPoint x="970" y="1540" as="targetPoint" />
          </mxGeometry>
        </mxCell>
        <mxCell id="un_Y9C6OP6CCxurtZeMn-29" value="" style="endArrow=none;html=1;rounded=0;entryX=0.5;entryY=1;entryDx=0;entryDy=0;" parent="1" source="un_Y9C6OP6CCxurtZeMn-25" target="un_Y9C6OP6CCxurtZeMn-26" edge="1">
          <mxGeometry width="50" height="50" relative="1" as="geometry">
            <mxPoint x="920" y="1590" as="sourcePoint" />
            <mxPoint x="970" y="1540" as="targetPoint" />
          </mxGeometry>
        </mxCell>
        <mxCell id="un_Y9C6OP6CCxurtZeMn-31" value="" style="endArrow=none;html=1;rounded=0;entryX=0.5;entryY=0;entryDx=0;entryDy=0;" parent="1" target="un_Y9C6OP6CCxurtZeMn-26" edge="1">
          <mxGeometry width="50" height="50" relative="1" as="geometry">
            <mxPoint x="805" y="1850" as="sourcePoint" />
            <mxPoint x="970" y="1560" as="targetPoint" />
          </mxGeometry>
        </mxCell>
        <mxCell id="un_Y9C6OP6CCxurtZeMn-32" value="" style="endArrow=none;html=1;rounded=0;entryX=0.5;entryY=1;entryDx=0;entryDy=0;" parent="1" source="un_Y9C6OP6CCxurtZeMn-4" edge="1">
          <mxGeometry width="50" height="50" relative="1" as="geometry">
            <mxPoint x="920" y="1610" as="sourcePoint" />
            <mxPoint x="805" y="1910" as="targetPoint" />
          </mxGeometry>
        </mxCell>
        <mxCell id="un_Y9C6OP6CCxurtZeMn-33" value="" style="endArrow=none;html=1;rounded=0;entryX=0.5;entryY=0.5;entryDx=0;entryDy=30;entryPerimeter=0;" parent="1" source="un_Y9C6OP6CCxurtZeMn-9" target="un_Y9C6OP6CCxurtZeMn-3" edge="1">
          <mxGeometry width="50" height="50" relative="1" as="geometry">
            <mxPoint x="870" y="1110" as="sourcePoint" />
            <mxPoint x="920" y="1060" as="targetPoint" />
          </mxGeometry>
        </mxCell>
        <mxCell id="8lHhl0YlunFI3RreVdan-1" style="orthogonalLoop=1;jettySize=auto;html=1;exitX=0;exitY=0.5;exitDx=0;exitDy=0;exitPerimeter=0;entryX=1;entryY=0.5;entryDx=0;entryDy=0;strokeColor=default;rounded=0;dashed=1;endArrow=none;endFill=0;" edge="1" parent="1" source="8lHhl0YlunFI3RreVdan-2">
          <mxGeometry relative="1" as="geometry">
            <mxPoint x="905" y="1880" as="targetPoint" />
          </mxGeometry>
        </mxCell>
        <mxCell id="8lHhl0YlunFI3RreVdan-2" value="&lt;span style=&quot;color: rgb(0, 0, 0); font-family: Helvetica; font-size: 12px; font-style: normal; font-variant-ligatures: normal; font-variant-caps: normal; font-weight: 400; letter-spacing: normal; orphans: 2; text-align: center; text-indent: 0px; text-transform: none; widows: 2; word-spacing: 0px; -webkit-text-stroke-width: 0px; background-color: rgb(251, 251, 251); text-decoration-thickness: initial; text-decoration-style: initial; text-decoration-color: initial; float: none; display: inline !important;&quot;&gt;Возврат массива merged&lt;/span&gt;" style="strokeWidth=1;html=1;shape=mxgraph.flowchart.annotation_1;align=left;pointerEvents=1;rounded=0;shadow=0;spacingLeft=5;" vertex="1" parent="1">
          <mxGeometry x="945" y="1850" width="40" height="60" as="geometry" />
        </mxCell>
      </root>
    </mxGraphModel>
  </diagram>
</mxfile>
